<svg width="186" height="186" viewBox="0 0 186 186" fill="none" xmlns="http://www.w3.org/2000/svg">
    <g clip-path="url(#clip0_283_3892)">
        <rect x="30" y="30" width="120" height="120" rx="26.6667" fill="url(#paint0_linear_283_3892)"/>
        <circle cx="35.8062" cy="47.4195" r="102.581" fill="white" fill-opacity="0.04"/>
        <g clip-path="url(#clip1_283_3892)">
            <path d="M117.742 89.9997C117.742 74.6782 105.322 62.2578 90.0002 62.2578C74.6787 62.2578 62.2583 74.6782 62.2583 89.9997C62.2583 105.321 74.6787 117.742 90.0002 117.742H117.742V113.118H105.316C113.072 107.983 117.739 99.3024 117.742 89.9997ZM103.589 108.703C100.49 110.954 96.1523 110.268 93.9014 107.168C91.6506 104.069 92.3369 99.7325 95.4355 97.4805C98.5353 95.2296 102.872 95.9159 105.123 99.0157C107.375 102.114 106.688 106.451 103.589 108.703ZM103.248 78.4034C106.891 77.2192 110.803 79.2127 111.987 82.8554C113.17 86.4993 111.177 90.4118 107.534 91.5948C103.892 92.7789 99.979 90.7854 98.7949 87.1427C97.6119 83.5 99.6054 79.5864 103.248 78.4034ZM90.0002 66.8815C93.8303 66.8815 96.9357 69.9869 96.9357 73.817C96.9357 77.647 93.8303 80.7524 90.0002 80.7524C86.1701 80.7524 83.0648 77.647 83.0648 73.817C83.0648 69.9869 86.1701 66.8815 90.0002 66.8815ZM68.013 82.8554C69.1972 79.2127 73.1097 77.2192 76.7524 78.4022C80.3951 79.5864 82.3886 83.4989 81.2056 87.1416C80.0214 90.7843 76.1089 92.7778 72.4662 91.5948C68.8235 90.4118 66.83 86.4993 68.013 82.8554ZM86.099 107.168C83.8482 110.268 79.5101 110.954 76.4115 108.703C73.3129 106.451 72.6254 102.114 74.8774 99.0157C77.1283 95.917 81.4663 95.2296 84.565 97.4816C87.6636 99.7325 88.3499 104.069 86.099 107.168ZM87.6884 89.9997C87.6884 88.723 88.7235 87.6879 90.0002 87.6879C91.2769 87.6879 92.3121 88.723 92.3121 89.9997C92.3121 91.2764 91.2769 92.3116 90.0002 92.3116C88.7235 92.3116 87.6884 91.2764 87.6884 89.9997Z" fill="white"/>
        </g>
    </g>
    <defs>
        <linearGradient id="paint0_linear_283_3892" x1="-4.73685" y1="-97.5" x2="201.033" y2="-59.9139" gradientUnits="userSpaceOnUse">
            <stop stop-color="#3E60F9"/>
            <stop offset="1" stop-color="#3D54F8"/>
        </linearGradient>
        <clipPath id="clip0_283_3892">
            <rect x="30" y="30" width="120" height="120" rx="26.6667" fill="white"/>
        </clipPath>
        <clipPath id="clip1_283_3892">
            <rect width="55.4839" height="55.4839" fill="white" transform="translate(62.2583 62.2578)"/>
        </clipPath>
    </defs>
</svg>
